<svg viewBox="0 0 18 18" fill="none" xmlns="http://www.w3.org/2000/svg">
<g clip-path="url(#clip0_23_13275)">
<path d="M0.686829 11.8513V13.2658C0.686829 14.9005 1.88823 16.2598 3.45445 16.5073V17.5531H4.483V16.5477H13.0711V17.5531H14.0996V16.5073C15.6658 16.2598 16.8672 14.9005 16.8672 13.2658V11.8513H0.686829Z" fill="#131212"/>
<path d="M1.71522 8.76426V2.83033C1.71522 1.83682 2.52353 1.02855 3.51704 1.02855C4.43715 1.02855 5.19783 1.7219 5.30531 2.61348C4.23429 2.8547 3.43167 3.81297 3.43167 4.95578V5.64159H8.23455V4.95578C8.23455 3.80474 7.42038 2.84075 6.33787 2.60817C6.22401 1.15108 5.00283 0 3.51704 0C1.95638 0 0.686677 1.26966 0.686677 2.83033V8.76426H0.000488281V10.823H17.5533V8.76426H1.71522Z" fill="#131212"/>
</g>
<defs>
<clipPath id="clip0_23_13275">
<rect width="17.5533" height="17.5533" fill="white"/>
</clipPath>
</defs>
</svg>
