<svg viewBox="0 0 21 21" fill="none" xmlns="http://www.w3.org/2000/svg">
<path d="M17.1805 9.1749C16.7793 8.99881 16.346 8.90807 15.9079 8.90845H4.45436C4.0163 8.90803 3.58294 8.99863 3.18175 9.1745C2.61472 9.42247 2.13221 9.83026 1.7932 10.348C1.4542 10.8658 1.27337 11.4711 1.27283 12.09V16.5441C1.27283 16.7129 1.33987 16.8747 1.4592 16.9941C1.57853 17.1134 1.74037 17.1804 1.90913 17.1804C2.07789 17.1804 2.23974 17.1134 2.35907 16.9941C2.4784 16.8747 2.54544 16.7129 2.54544 16.5441V16.226C2.54647 16.1419 2.58032 16.0616 2.63976 16.0021C2.69921 15.9427 2.77953 15.9088 2.86359 15.9078H17.4986C17.5827 15.9088 17.663 15.9427 17.7225 16.0021C17.7819 16.0616 17.8158 16.1419 17.8168 16.226V16.5441C17.8168 16.7129 17.8838 16.8747 18.0032 16.9941C18.1225 17.1134 18.2843 17.1804 18.4531 17.1804C18.6219 17.1804 18.7837 17.1134 18.903 16.9941C19.0224 16.8747 19.0894 16.7129 19.0894 16.5441V12.09C19.0888 11.4712 18.9079 10.8659 18.5689 10.3483C18.2299 9.83057 17.7474 9.42284 17.1805 9.1749Z" fill="#131212"/>
<path d="M14.9528 3.1814H5.40822C4.81757 3.1814 4.2511 3.41603 3.83345 3.83369C3.41579 4.25135 3.18115 4.81781 3.18115 5.40847V8.27184C3.18117 8.2965 3.18692 8.32081 3.19794 8.34286C3.20896 8.36491 3.22496 8.38409 3.24466 8.3989C3.26437 8.41371 3.28725 8.42374 3.3115 8.42819C3.33574 8.43264 3.36069 8.4314 3.38437 8.42456C3.73174 8.32296 4.09184 8.27154 4.45376 8.27184H4.62199C4.66125 8.27209 4.69922 8.25781 4.72859 8.23175C4.75796 8.20568 4.77665 8.16968 4.78106 8.13066C4.81577 7.81975 4.96379 7.53251 5.19685 7.3238C5.42991 7.11509 5.73168 6.99955 6.04453 6.99923H8.2716C8.58466 6.99926 8.88672 7.11467 9.12003 7.3234C9.35334 7.53214 9.50153 7.81954 9.53626 8.13066C9.54068 8.16968 9.55937 8.20568 9.58873 8.23175C9.6181 8.25781 9.65607 8.27209 9.69534 8.27184H10.6681C10.7074 8.27209 10.7453 8.25781 10.7747 8.23175C10.8041 8.20568 10.8227 8.16968 10.8272 8.13066C10.8618 7.81995 11.0097 7.53288 11.2425 7.3242C11.4753 7.11552 11.7768 6.99984 12.0894 6.99923H14.3165C14.6296 6.99926 14.9316 7.11467 15.1649 7.3234C15.3982 7.53214 15.5464 7.81954 15.5812 8.13066C15.5856 8.16968 15.6043 8.20568 15.6336 8.23175C15.663 8.25781 15.701 8.27209 15.7402 8.27184H15.9073C16.2692 8.27167 16.6293 8.32323 16.9767 8.42496C17.0004 8.43181 17.0254 8.43304 17.0496 8.42857C17.0739 8.4241 17.0968 8.41403 17.1165 8.39918C17.1362 8.38433 17.1522 8.36509 17.1632 8.34299C17.1742 8.32089 17.1799 8.29653 17.1799 8.27184V5.40847C17.1799 4.81781 16.9452 4.25135 16.5276 3.83369C16.1099 3.41603 15.5435 3.1814 14.9528 3.1814Z" fill="#131212"/>
</svg>
