<svg viewBox="0 0 29 29" fill="none" xmlns="http://www.w3.org/2000/svg">
<g clip-path="url(#clip0_71_288)">
<path d="M28.4846 5.48442C28.1089 5.04025 27.5827 4.76894 27.0029 4.72052L6.58077 3.0153C6.00088 2.96687 5.43708 3.14716 4.99285 3.52285C4.55043 3.89708 4.27952 4.4206 4.22957 4.9976L3.8187 8.85232H2.17811C0.977104 8.85232 0 9.82942 0 11.0304V23.8143C0 25.0153 0.977104 25.9924 2.17811 25.9924H22.6713C23.8724 25.9924 24.8495 25.0153 24.8495 23.8143V21.7405L25.5767 21.8012C25.6381 21.8063 25.6991 21.8089 25.7595 21.8089C26.8792 21.8089 27.8337 20.9474 27.9285 19.8119L28.9923 7.07239C29.0407 6.49257 28.8604 5.92865 28.4846 5.48442ZM2.17811 9.98513H22.6713C23.2477 9.98513 23.7167 10.4541 23.7167 11.0304V12.1953H1.13281V11.0304C1.13281 10.4541 1.60173 9.98513 2.17811 9.98513ZM1.13281 13.3281H23.7167V15.6781H1.13281V13.3281ZM22.6713 24.8596H2.17811C1.60173 24.8596 1.13281 24.3906 1.13281 23.8143V16.8109H23.7167V23.8143C23.7167 24.3906 23.2477 24.8596 22.6713 24.8596ZM27.8634 6.97809L26.7996 19.7176C26.7517 20.292 26.2452 20.7205 25.671 20.6723L24.8495 20.6037V11.0304C24.8495 9.82942 23.8724 8.85232 22.6713 8.85232H4.95796L5.35665 5.11179C5.35711 5.10748 5.3575 5.10323 5.35784 5.09887C5.40582 4.52448 5.91196 4.09605 6.48652 4.1442L26.9087 5.84941C27.1869 5.87264 27.4395 6.00285 27.6198 6.21605C27.8001 6.42924 27.8866 6.69981 27.8634 6.97809Z" fill="#2B2B2B"/>
<path d="M21.3467 18.4949H15.8955C15.5827 18.4949 15.3291 18.7485 15.3291 19.0613V22.6177C15.3291 22.9305 15.5827 23.1841 15.8955 23.1841H21.3467C21.6595 23.1841 21.9131 22.9305 21.9131 22.6177V19.0613C21.9131 18.7485 21.6595 18.4949 21.3467 18.4949ZM20.7803 22.0513H16.4619V19.6277H20.7803V22.0513Z" fill="#2B2B2B"/>
</g>
<defs>
<clipPath id="clip0_71_288">
<rect width="29" height="29" fill="white"/>
</clipPath>
</defs>
</svg>
