<svg viewBox="0 0 18 18" fill="none" xmlns="http://www.w3.org/2000/svg">
<path d="M13.7843 2.17651H3.62746C2.60146 2.17651 2.08846 2.17651 1.76973 2.47556C1.45099 2.7746 1.45099 3.25591 1.45099 4.21852V4.71898C1.45099 5.47192 1.45099 5.8484 1.63933 6.16048C1.82766 6.47257 2.17174 6.66627 2.8599 7.05366L4.97328 8.24334C5.43499 8.50325 5.66585 8.63321 5.83114 8.77672C6.17537 9.07556 6.38728 9.42671 6.48331 9.8574C6.52942 10.0642 6.52942 10.3062 6.52942 10.7902L6.52942 12.7269C6.52942 13.3868 6.52942 13.7167 6.71219 13.9739C6.89496 14.2311 7.21957 14.358 7.86879 14.6118C9.23172 15.1446 9.91318 15.411 10.3978 15.1079C10.8824 14.8048 10.8824 14.1122 10.8824 12.7269V10.7902C10.8824 10.3062 10.8824 10.0642 10.9285 9.8574C11.0245 9.42671 11.2364 9.07556 11.5806 8.77672C11.7459 8.63321 11.9768 8.50325 12.4385 8.24334L14.5519 7.05366C15.24 6.66627 15.5841 6.47257 15.7725 6.16048C15.9608 5.8484 15.9608 5.47192 15.9608 4.71898V4.21852C15.9608 3.25591 15.9608 2.7746 15.6421 2.47556C15.3233 2.17651 14.8103 2.17651 13.7843 2.17651Z" stroke="#5F5F5F" stroke-width="1.08824"/>
<line x1="3.31541" y1="7.17192" x2="10.5703" y2="2.09349" stroke="#5F5F5F" stroke-width="1.08824"/>
</svg>
