<svg viewBox="0 0 19 19" fill="none" xmlns="http://www.w3.org/2000/svg">
<path fill-rule="evenodd" clip-rule="evenodd" d="M4.15544 7.96006V6.3335C4.15544 3.38222 6.54791 0.989746 9.49919 0.989746C12.4505 0.989746 14.8429 3.38222 14.8429 6.3335V7.96006C15.7255 8.02597 16.3001 8.19237 16.7202 8.61245C17.4159 9.30807 17.4159 10.4277 17.4159 12.6668C17.4159 14.906 17.4159 16.0256 16.7202 16.7212C16.0246 17.4168 14.905 17.4168 12.6659 17.4168H6.33252C4.09335 17.4168 2.97376 17.4168 2.27814 16.7212C1.58252 16.0256 1.58252 14.906 1.58252 12.6668C1.58252 10.4277 1.58252 9.30807 2.27814 8.61245C2.69822 8.19237 3.27292 8.02597 4.15544 7.96006ZM5.34294 6.3335C5.34294 4.03806 7.20375 2.17725 9.49919 2.17725C11.7946 2.17725 13.6554 4.03806 13.6554 6.3335V7.91966C13.3522 7.91683 13.0233 7.91683 12.6659 7.91683H6.33252C5.97507 7.91683 5.64615 7.91683 5.34294 7.91966V6.3335Z" fill="#161117"/>
</svg>
