<svg viewBox="0 0 18 18" fill="none" xmlns="http://www.w3.org/2000/svg">
<path d="M16.8222 13.8961C16.8222 14.0901 16.7451 14.2761 16.608 14.4133C16.4708 14.5504 16.2848 14.6275 16.0908 14.6275H7.31417C7.12019 14.6275 6.93416 14.5504 6.797 14.4133C6.65984 14.2761 6.58278 14.0901 6.58278 13.8961C6.58278 12.7322 7.04512 11.616 7.86809 10.7931C8.69106 9.97011 9.80724 9.50777 10.9711 9.50777H12.4339C13.5977 9.50777 14.7139 9.97011 15.5369 10.7931C16.3598 11.616 16.8222 12.7322 16.8222 13.8961ZM11.7025 2.92529C11.1239 2.92529 10.5582 3.09687 10.0771 3.41834C9.59603 3.7398 9.22106 4.19671 8.99963 4.73128C8.7782 5.26585 8.72027 5.85408 8.83315 6.42158C8.94603 6.98908 9.22467 7.51037 9.63381 7.91951C10.043 8.32866 10.5642 8.60729 11.1317 8.72017C11.6992 8.83305 12.2875 8.77512 12.822 8.55369C13.3566 8.33226 13.8135 7.95729 14.135 7.47618C14.4564 6.99508 14.628 6.42946 14.628 5.85084C14.628 5.07494 14.3198 4.33081 13.7712 3.78217C13.2225 3.23352 12.4784 2.92529 11.7025 2.92529ZM5.12001 2.92529C4.54139 2.92529 3.97576 3.09687 3.49466 3.41834C3.01356 3.7398 2.63858 4.19671 2.41716 4.73128C2.19573 5.26585 2.13779 5.85408 2.25068 6.42158C2.36356 6.98908 2.64219 7.51037 3.05133 7.91951C3.46048 8.32866 3.98176 8.60729 4.54926 8.72017C5.11676 8.83305 5.70499 8.77512 6.23956 8.55369C6.77414 8.33226 7.23105 7.95729 7.55251 7.47618C7.87397 6.99508 8.04555 6.42946 8.04555 5.85084C8.04555 5.07494 7.73733 4.33081 7.18868 3.78217C6.64003 3.23352 5.89591 2.92529 5.12001 2.92529ZM5.12001 13.8961C5.11892 13.1278 5.27027 12.367 5.56531 11.6577C5.86034 10.9484 6.29318 10.3046 6.83876 9.76376C6.39228 9.59518 5.91906 9.50847 5.44182 9.50777H4.7982C3.72029 9.5097 2.68708 9.93876 1.92488 10.701C1.16268 11.4632 0.733623 12.4964 0.731689 13.5743V13.8961C0.731689 14.0901 0.808746 14.2761 0.945907 14.4133C1.08307 14.5504 1.2691 14.6275 1.46308 14.6275H5.25166C5.16651 14.3929 5.12198 14.1456 5.12001 13.8961Z" fill="#131212"/>
</svg>
